<?xml version="1.0" encoding="UTF-8" standalone="no"?>
<!-- Created with Inkscape (http://www.inkscape.org/) -->

<svg
   xmlns:dc="http://purl.org/dc/elements/1.1/"
   xmlns:cc="http://creativecommons.org/ns#"
   xmlns:rdf="http://www.w3.org/1999/02/22-rdf-syntax-ns#"
   xmlns:svg="http://www.w3.org/2000/svg"
   xmlns="http://www.w3.org/2000/svg"
   xmlns:sodipodi="http://sodipodi.sourceforge.net/DTD/sodipodi-0.dtd"
   xmlns:inkscape="http://www.inkscape.org/namespaces/inkscape"
   width="295.79388mm"
   height="431.36215mm"
   viewBox="0 0 1048.0886 1528.4486"
   id="svg2"
   version="1.1"
   inkscape:version="0.91 r13725"
   sodipodi:docname="monster2.svg">
  <defs
     id="defs4" />
  <sodipodi:namedview
     id="base"
     pagecolor="#ffffff"
     bordercolor="#666666"
     borderopacity="1.0"
     inkscape:pageopacity="0.0"
     inkscape:pageshadow="2"
     inkscape:zoom="0.49497475"
     inkscape:cx="179.87128"
     inkscape:cy="847.60247"
     inkscape:document-units="px"
     inkscape:current-layer="layer1"
     showgrid="false"
     inkscape:window-width="1920"
     inkscape:window-height="1018"
     inkscape:window-x="-8"
     inkscape:window-y="-8"
     inkscape:window-maximized="1"
     fit-margin-top="0"
     fit-margin-left="0"
     fit-margin-right="0"
     fit-margin-bottom="0" />
  <metadata
     id="metadata7">
    <rdf:RDF>
      <cc:Work
         rdf:about="">
        <dc:format>image/svg+xml</dc:format>
        <dc:type
           rdf:resource="http://purl.org/dc/dcmitype/StillImage" />
        <dc:title></dc:title>
      </cc:Work>
    </rdf:RDF>
  </metadata>
  <g
     inkscape:label="Layer 1"
     inkscape:groupmode="layer"
     id="layer1"
     transform="translate(1041.4584,655.4689)">
    <path
       style="fill:#000000"
       d="m -739.55314,871.79689 c -11.76519,-3.7307 -19.10107,-10.5073 -22.26439,-20.5672 -1.96909,-6.2621 -2.10965,-8.3779 -2.09634,-31.5559 0.0145,-25.3717 0.34944,-29.89111 5.21009,-70.31245 2.99363,-24.89522 6.01855,-45.82041 10.23201,-70.78125 9.2864,-55.01316 10.8168,-68.50088 9.34964,-82.40053 -2.52543,-23.92528 -8.54558,-36.43322 -19.23324,-39.96047 -5.90012,-1.94719 -15.23633,-0.72384 -23.09861,3.02663 -11.67906,5.57128 -26.37746,18.15328 -40.83972,34.95937 -14.71641,17.10141 -26.80956,36.95306 -43.11826,70.78125 -16.65681,34.55025 -32.02751,64.57444 -38.02971,74.28487 -20.8367,33.70988 -47.3769,69.24008 -62.3449,83.46318 -10.3282,9.8142 -23.7924,14.3197 -40.76683,13.6417 -7.9972,-0.3195 -10.5209,-0.8177 -15.4193,-3.0441 -20.3213,-9.2363 -25.0653,-35.7457 -12.7358,-71.16759 1.7763,-5.10319 8.4276,-19.66922 14.7807,-32.36897 14.6962,-29.37778 23.92303,-52.4819 38.98563,-97.62159 20.2154,-60.58125 25.6309,-78.09572 44.4584,-143.78522 30.8924,-107.78466 53.298,-221.06681 61.3992,-310.43352 3.2864,-36.25284 4.1817,-58.03279 4.22,-102.656254 0.038,-44.82593 -0.8696,-65.22056 -5.1764,-116.25 -4.2252,-50.06379 -4.7514,-60.603406 -5.2428,-105.000006 -0.4212,-38.05886 -0.2487,-48.14243 1.0583,-61.875 4.4674,-46.9397 15.75162,-88.34983 32.90835,-120.76562 6.39568,-12.08395 18.90579,-30.96036 27.32537,-41.23106 l 6.37611,-7.77793 -15.9375,-16.13103 c -16.13759,-16.33355 -25.36732,-27.428 -38.37294,-46.12561 -3.94519,-5.67188 -7.89399,-11.27331 -8.77509,-12.44762 l -1.602,-2.13511 -7.0312,1.52514 c -12.6439,2.74255 -29.5103,0.45437 -42.7858,-5.80452 -30.3207,-14.29512 -46.5492,-48.84149 -38.2944,-81.51891 4.542,-17.97963 18.9141,-36.361 35.0183,-44.78706 11.6241,-6.08195 18.5478,-7.64442 33.8744,-7.64442 15.4436,0 21.4934,1.24039 32.46537,6.65633 16.96629,8.37488 31.07749,26.32267 35.97759,45.75926 1.31402,5.21217 1.86952,10.52994 1.86952,17.89691 0,19.75708 -5.62075,34.20603 -19.00191,48.84714 -5.41094,5.92043 -5.62504,5.09337 4.12731,15.94265 15.92463,17.7158 36.06037,32.84 57.38194,43.10027 l 6.41359,3.08631 8.11766,-6.2022 c 24.59261,-18.78974 53.53865,-34.43627 91.08641,-49.23599 25.49241,-10.04801 47.20527,-16.3093 76.875,-22.16826 37.37598,-7.38073 54.53619,-8.99913 95.15625,-8.97426 29.00119,0.0177 36.25631,0.31732 51.5625,2.12905 66.76088,7.90218 115.66322,23.64474 164.39934,52.92314 7.69904,4.62523 7.8885,4.6829 10.78125,3.28096 7.43879,-3.60523 27.423,-20.14788 39.52716,-32.71994 13.93406,-14.47283 25.55147,-31.67818 33.59297,-49.75112 l 3.61322,-8.12059 -4.77075,-4.77071 c -13.49644,-13.49645 -20.68397,-30.96257 -20.72063,-50.35203 -0.0216,-11.30714 1.989,-20.56069 6.53981,-30.10132 9.53204,-19.98351 24.43922,-32.30193 46.88138,-38.74 6.55669,-1.88093 28.18069,-1.64823 35.625,0.38338 24.05372,6.56442 42.287252,24.29996 49.835722,48.47477 1.89385,6.06512 2.18803,8.8991 2.14125,20.625 -0.0478,11.99957 -0.33572,14.43665 -2.45372,20.78123 -3.81496,11.42742 -8.63484,19.1254 -17.563412,28.05084 -8.40515,8.40228 -15.57693,13.20793 -24.98401,16.74126 -12.07142,4.53408 -27.06289,5.89367 -38.51558,3.49305 l -5.7585,-1.20705 -4.44694,11.77346 c -12.84506,34.00785 -31.20975,66.71224 -51.23362,91.23827 l -7.47216,9.1523 8.60081,9.12895 c 27.33441,29.01286 51.70969,72.02236 63.08747,111.31644 8.77163,30.29341 13.82091,63.92062 15.26963,101.6931 0.48469,12.63672 0.11719,18.82331 -2.78644,46.90065 -4.92375,47.610666 -10.40691,117.957986 -13.22625,169.687506 -0.77278,14.17969 -1.62966,28.3125 -1.90416,31.40625 -1.24593,14.04246 -3.28575,83.450814 -3.84346,130.781244 -1.65741,140.64066 8.57653,241.40522 30.49209,300.22856 1.97025,5.28835 9.38577,22.48238 16.4789,38.20894 7.09313,15.72656 23.63166,53.69531 36.752452,84.375 13.12068,30.67969 26.9219,61.6875 30.66947,68.90625 15.68521,30.21384 34.75003,57.38644 52.6215004,75 10.27921,10.13091 14.91253,19.14216 14.89096,28.96116 -0.0263,12.12224 -7.00846004,22.62404 -20.7248404,31.17304 -10.63537,6.6287 -18.59109,8.772 -32.56144,8.772 -9.10509,0 -13.43156,-0.4755 -20.3549,-2.2369 -15.54591,-3.9555 -35.602602,-12.7075 -49.362482,-21.5399 -31.58634,-20.27543 -58.05431,-55.76684 -79.33846,-106.38621 -8.45419,-20.10647 -25.42116,-73.03828 -30.54957,-95.30569 -3.819,-16.58203 -11.10984,-36.60525 -16.9229,-46.47628 -13.90594,-23.61338 -31.28316,-32.51963 -47.05144,-24.11522 -9.86644,5.25872 -20.45428,17.12691 -30.75403,34.47291 -23.59285,39.73331 -38.73769,86.1449 -42.1351,129.12384 -1.88643,23.8635 1.46841,51.76481 9.4456,78.55725 7.095,23.8297 7.66612,26.93 7.16709,38.9062 -0.70837,17.0009 -4.99256,27.8438 -14.50781,36.7181 -5.72128,5.3359 -11.62369,8.4115 -22.46344,11.7057 -7.10859,2.1602 -10.01737,2.5204 -20.91328,2.5896 -14.23641,0.091 -20.51803,-1.1846 -30.81816,-6.2553 -10.74412,-5.2893 -21.47775,-17.2245 -29.0685,-32.3225 -7.02121,-13.9651 -17.51484,-50.27802 -21.60956,-74.7793 -4.06967,-24.35091 -5.003,-37.93659 -5.2169,-75.9375 -0.16612,-29.50931 -0.50698,-38.16244 -1.767,-44.85647 -2.01085,-10.683 -4.58422,-18.32587 -8.72895,-25.92478 -9.59521,-17.59191 -21.03939,-24.56766 -40.60343,-24.74972 -11.56337,-0.10762 -19.34978,1.93594 -28.99696,7.61025 -11.28679,6.63872 -25.94976,23.55019 -35.73655,41.21644 -16.63981,30.03684 -31.44612,76.06875 -39.35799,122.36175 -3.7355,21.85678 -9.76521,41.96483 -18.1683,60.58823 -14.7242,32.6328 -32.20685,50.7195 -54.54896,56.4336 -8.20245,2.0978 -15.04895,2.277 -20.53499,0.5375 z m 69.89458,-466.33493 c 2.29236,-1.45715 6.38873,-5.08359 9.10305,-8.05875 9.89219,-10.84293 13.93575,-20.54953 18.92625,-45.43265 4.51137,-22.49419 8.98488,-37.58316 13.24173,-44.66409 8.94718,-14.88272 26.16365,-22.46447 40.32847,-17.75972 7.74712,2.57315 20.76072,15.99459 31.33266,32.31459 10.92742,16.86872 20.29188,29.22909 25.17786,33.23278 2.20077,1.80338 6.42758,4.38956 9.3929,5.74716 4.58674,2.09981 6.39615,2.41734 12.12201,2.1269 14.96483,-0.7589 20.99287,-6.43171 41.72924,-39.27009 4.75294,-7.52681 14.28338,-17.18381 19.40588,-19.66359 12.1755,-5.89407 28.83328,-1.54444 40.11496,10.47468 4.01925,4.28204 10.54313,13.76129 25.33285,36.80954 2.49693,3.89118 6.83709,9.37218 9.64481,12.17981 12.86597,12.86597 25.0995,12.22153 42.26353,-2.22638 22.04681,-18.5579 30.51656,-43.02853 33.10997,-95.66081 1.12378,-22.8045 2.52487,-36.87994 6.15919,-61.875 2.09981,-14.44115 2.52431,-20.63859 2.53668,-37.03124 0.0131,-17.26087 -0.23474,-20.61197 -2.00962,-27.1875 -4.41881,-16.37102 -11.67516,-26.80329 -22.41431,-32.22438 -17.86322,-9.017324 -37.22644,-7.301254 -63.98644,5.6708 -14.43712,6.99848 -20.00428,12.94431 -28.86056,30.82371 -8.29107,16.73831 -13.06744,22.9169 -21.01341,27.18234 -4.79381,2.57344 -6.96759,3.17719 -11.53228,3.20306 -11.27494,0.0637 -19.78584,-6.44578 -37.51087,-28.69143 -7.13297,-8.95213 -15.79412,-19.07273 -19.247,-22.49023 -11.12831,-11.01423 -22.20263,-15.40602 -38.56129,-15.29238 -7.43138,0.0516 -8.73693,0.35562 -15.15996,3.53005 -10.85165,5.36318 -16.78689,12.42571 -28.20266,33.55918 -12.02453,22.26056 -15.93449,28.16963 -23.35342,35.29359 -11.71935,11.25346 -24.47917,14.59584 -33.48438,8.77096 -5.48002,-3.54459 -10.52421,-9.02624 -17.79219,-19.33527 -6.72147,-9.53381 -16.07302,-21.02972 -20.74245,-25.49887 -6.52486,-6.24492 -16.76091,-8.8772 -26.6085,-6.84256 -11.23059,2.32043 -18.95201,7.79028 -23.7777,16.84418 -8.43508,15.82585 -10.84257,30.6764 -10.11141,62.37224 0.66889,28.9965 2.97848,45.93863 14.1644,103.90378 8.19531,42.46781 10.76833,52.0156 17.91009,66.4591 9.45768,19.12715 21.11377,25.86281 32.37192,18.7065 z m 28.73881,-385.907844 c 11.76382,-2.01834 22.40811,-5.21153 39.1582,-11.7471101 30.75326,-11.99936 53.98154,-17.8433099 81.91711,-20.6093599 11.94225,-1.18246 57.37496,-1.20575 69.51005,-0.0356 27.41897,2.64384 54.14831,6.7255199 77.27316,11.7999099 28.99697,6.36295 42.34068,7.35467 61.35656,4.5601 22.34466,-3.28378995 35.23125,-9.57753 50.11116,-24.4740899 19.64071,-19.66275 29.84043,-45.09332 34.90603,-87.030336 2.2409,-18.55211 2.25337,-80.98879 0.0197,-97.88795 -6.08325,-46.0205 -22.24575,-79.91237 -51.26465,-107.4992 -32.53866,-30.93293 -90.59757,-51.91318 -156.63994,-56.60367 -19.95637,-1.41736 -65.55221,-1.18481 -88.88681,0.45333 -63.82059,4.48033 -108.26215,14.87757 -150.41792,35.19073 -45.2066,21.78324 -78.88178,58.00122 -96.96177,104.28337 -17.86409,45.72945 -28.05024,121.28962 -21.18519,157.150336 3.25855,17.02154 9.6757,32.38547 19.10431,45.73954 19.69075,27.88863995 47.84322,43.18059 89.14807,48.42372 6.61314,0.83945 34.46247,-0.27427 42.85214,-1.7137 z m 10.2525,-132.302756 c -17.50016,-4.23636 -33.26612,-19.68007 -38.20211,-37.42127 -2.12225,-7.62787 -1.6806,-22.25128 0.89941,-29.78084 4.13821,-12.07701 15.16998,-25.02876 25.63782,-30.09984 20.33944,-9.8533 44.79545,-5.99087 60.22131,9.51098 20.57453,20.67589 20.84634,53.13487 0.61375,73.29307 -13.31877,13.26977 -31.76982,18.7101 -49.17018,14.4979 z m 30.89979,-43.79214 c 4.9182,-2.5433 10.34142,-8.74794 11.61165,-13.28475 1.77648,-6.345 0.8372,-13.65989 -2.43329,-18.94978 -8.23867,-13.32573 -27.17317,-14.13649 -36.35388,-1.55664 -8.9048,12.20178 -4.75514,27.67532 9.17661,34.21849 4.53384,2.12934 13.4649,1.91731 17.99891,-0.42732 z m 199.80035,28.87226 c -24.18919,-6.14232 -40.05478,-26.72497 -40.05478,-51.96363 0,-22.79723 18.03516,-45.12363 40.12425,-49.67122 28.36894,-5.84044 55.40091,10.93076 62.51175,38.78355 6.38944,25.02698 -8.93569,52.77462 -34.0095,61.57748 -7.11759,2.49885 -21.26363,3.12952 -28.57172,1.27382 z m 27.80522,-42.87234 c 5.56359,-1.66124 13.21866,-9.38213 14.65913,-14.7853 1.31971,-4.94984 0.72375,-12.73227 -1.2661,-16.53514 -1.84472,-3.52534 -6.85228,-8.55428 -10.28587,-10.32989 -3.85107,-1.99145 -11.63166,-2.60436 -16.46832,-1.29729 -5.72315,1.54664 -12.4649,8.44342 -14.63231,14.96867 -3.55603,10.70615 1.5211,21.97371 12.12638,26.91221 5.27765,2.45758 10.119,2.78307 15.86709,1.06674 z"
       id="path4200"
       inkscape:connector-curvature="0" />
  </g>
</svg>
